# xmcd CD database file
#
# Track frame offsets:
#	150
#	10875
#	21888
#	32363
#	45343
#	56315
#	69298
#	80038
#	95115
#	105338
#	115863
#	129128
#	140035
#	150378
#	160503
#	172500
#	189365
#	198825
#	210353
#	222760
#	234293
#	244230
#	257235
#	270403
#
# Disc length: 3731 seconds
#
# Revision: 0
# Processed by: cddbd v1.5PL3 Copyright (c) Steve Scherf et al.
# Submitted via: CDex 1.51
#
DISCID=230e9118
DTITLE=Danny Davis - And The Nashville Brass
DYEAR=1900
DGENRE=Country
TTITLE0=San Antonio Rose
TTITLE1=Release Me
TTITLE2=Java
TTITLE3=Blue Eyes Crying In The Rain
TTITLE4=El Paso
TTITLE5=Moonlight Serenade
TTITLE6=Down Yonder
TTITLE7=Are You Lonesome Tonight
TTITLE8=Jealous Heart
TTITLE9=Jambalaya
TTITLE10=I Love You Because
TTITLE11=Sweet Dreams
TTITLE12=Snowbird
TTITLE13=TennesseeWaltz
TTITLE14=Melodie D'Amour
TTITLE15=Somewhere My Love
TTITLE16=Yellow Rose Of Texas
TTITLE17=Room Full Of Roses
TTITLE18=I Can't Stop Loving You
TTITLE19=Crazy Arms
TTITLE20=I Fall To Pieces
TTITLE21=Paloma Blanca
TTITLE22=Anytime
TTITLE23=Green, Green Grass Of Home
EXTD=
EXTT0=
EXTT1=
EXTT2=
EXTT3=
EXTT4=
EXTT5=
EXTT6=
EXTT7=
EXTT8=
EXTT9=
EXTT10=
EXTT11=
EXTT12=
EXTT13=
EXTT14=
EXTT15=
EXTT16=
EXTT17=
EXTT18=
EXTT19=
EXTT20=
EXTT21=
EXTT22=
EXTT23=
PLAYORDER=
